<svg height="18" viewBox="0 0 115 18" width="115" xmlns="http://www.w3.org/2000/svg"><path d="m74.9533929 5.25835301v2.48387096h-2.39825v4.80967743c0 1.083871.04525 1.6258064 1.380125 1.6258064.339375 0 .67875 0 1.018125-.0451612v2.8225806c-1.063375.0903226-1.5385.1129032-2.194625.1129032-3.099625 0-4.049875-.9258064-4.049875-3.9290322v-5.39677423h-1.923125v-2.48387096h1.923125v-3.56774194h3.84625v3.56774194zm12.9802857 6.75161289h-8.688c.04525 1.716129 1.04075 2.7096774 2.66975 2.7096774 1.063375 0 1.696875-.4516129 2.194625-1.3548387h3.597375c-.746625 2.5290323-2.896 3.9064516-5.83725 3.9064516-3.642625 0-6.38025-2.2806451-6.38025-6.0516129 0-3.68064513 2.57925-6.25483868 6.2445-6.25483868 3.84625 0 6.19925 2.5516129 6.19925 6.70645158zm-3.778375-2.19032257c-.113125-1.33225807-.927625-2.28064516-2.39825-2.28064516-1.380125 0-2.239875.81290322-2.466125 2.28064516zm9.0435357-8.98709678v16.07741935h-3.84625v-16.07741935zm13.9757857 11.17741935h-8.688c.04525 1.716129 1.04075 2.7096774 2.66975 2.7096774 1.063375 0 1.696875-.4516129 2.194625-1.3548387h3.597375c-.746625 2.5290323-2.896 3.9064516-5.83725 3.9064516-3.642625 0-6.38025-2.2806451-6.38025-6.0516129 0-3.68064513 2.57925-6.25483868 6.2445-6.25483868 3.84625 0 6.19925 2.5516129 6.19925 6.70645158zm-3.778375-2.19032257c-.113125-1.33225807-.927625-2.28064516-2.39825-2.28064516-1.380125 0-2.239875.81290322-2.466125 2.28064516zm15.355911-1.15161291h-3.5295c-.158375-1.03870967-.791875-1.35483871-1.877875-1.35483871-.9955 0-1.5385.33870968-1.5385.9483871 0 .79032258.927625.88064516 1.515875 1.01612903 1.199125.2483871 2.375625.47419355 3.5295.88064516 1.515875.5419355 2.239875 1.5354839 2.239875 3.0483871 0 2.5064516-2.104125 4.0193548-5.611 4.0193548-2.8055 0-5.5205-.9258064-5.678875-4.1548387h3.642625c.0905 1.2645162.905 1.6483871 2.12675 1.6483871 1.086 0 1.76475-.4516129 1.76475-1.1967742 0-.632258-.40725-.8806451-1.968375-1.2193548-1.448-.2935484-2.30775-.5193548-3.054375-.7677419-1.49325-.5193549-2.285125-1.5354839-2.285125-2.9806452 0-2.3483871 1.923125-3.63548387 5.43-3.63548387 2.692375 0 5.1585.88064516 5.29425 3.74838709zm13.54591 3.34193548h-8.688c.04525 1.716129 1.04075 2.7096774 2.66975 2.7096774 1.063375 0 1.696875-.4516129 2.194625-1.3548387h3.597375c-.746625 2.5290323-2.896 3.9064516-5.83725 3.9064516-3.642625 0-6.38025-2.2806451-6.38025-6.0516129 0-3.68064513 2.57925-6.25483868 6.2445-6.25483868 3.84625 0 6.19925 2.5516129 6.19925 6.70645158zm-3.778375-2.19032257c-.113125-1.33225807-.927625-2.28064516-2.39825-2.28064516-1.380125 0-2.239875.81290322-2.466125 2.28064516zm8.749411-4.56129032v1.53548387c.95025-1.21935484 2.21725-1.85161291 3.778375-1.85161291 2.57925 0 4.230875 1.44516129 4.230875 4.29032258v7.67741935h-3.8915v-6.616129c0-1.24193551-.2715-2.23548389-1.76475-2.23548389-1.40275 0-2.194625.85806451-2.194625 2.34838709v6.5032258h-3.84625v-11.65161289zm20.220286 3.40967741h-3.5295c-.158375-1.03870967-.791875-1.35483871-1.877875-1.35483871-.9955 0-1.5385.33870968-1.5385.9483871 0 .79032258.927625.88064516 1.515875 1.01612903 1.199125.2483871 2.375625.47419355 3.5295.88064516 1.515875.5419355 2.239875 1.5354839 2.239875 3.0483871 0 2.5064516-2.104125 4.0193548-5.611 4.0193548-2.8055 0-5.5205-.9258064-5.678875-4.1548387h3.642625c.0905 1.2645162.905 1.6483871 2.12675 1.6483871 1.086 0 1.76475-.4516129 1.76475-1.1967742 0-.632258-.40725-.8806451-1.968375-1.2193548-1.448-.2935484-2.30775-.5193548-3.054375-.7677419-1.49325-.5193549-2.285125-1.5354839-2.285125-2.9806452 0-2.3483871 1.923125-3.63548387 5.43-3.63548387 2.692375 0 5.1585.88064516 5.29425 3.74838709zm7.324036-3.74838709c3.62 0 6.10875 2.50645161 6.10875 6.14193547 0 3.6806452-2.48875 6.2096774-6.154 6.2096774s-6.176625-2.5064516-6.176625-6.1870967c0-3.63548391 2.534-6.16451617 6.221875-6.16451617zm-.0905 2.84516129c-1.448 0-2.285125 1.21935484-2.285125 3.31935488 0 2.1677419.837125 3.3870967 2.330375 3.3870967 1.470625 0 2.30775-1.2419355 2.30775-3.4096774 0-2.09999999-.837125-3.29677418-2.353-3.29677418zm15.966785-2.66451613v3.43225806c-.724-.18064516-1.063375-.22580645-1.515875-.22580645-2.013625 0-2.896 1.28709678-2.896 3.2967742v5.3064516h-3.823625v-11.65161289h3.66525l-.022625 1.98709677c.791875-1.49032258 1.832625-2.25806452 3.597375-2.25806452.429875 0 .58825.02258065.9955.11290323z" fill="#e30547" transform="translate(-66)"/></svg>